<?xml version="1.0" encoding="utf-8"?>
<!-- Generator: Adobe Illustrator 25.2.1, SVG Export Plug-In . SVG Version: 6.00 Build 0)  -->
<svg version="1.1" id="Layer_1" xmlns="http://www.w3.org/2000/svg" xmlns:xlink="http://www.w3.org/1999/xlink" x="0px" y="0px"
	 viewBox="0 0 650.48 379.38" style="enable-background:new 0 0 650.48 379.38;" xml:space="preserve">
<style type="text/css">
	.st0{fill:#C5E5F0;}
	.st1{fill-rule:evenodd;clip-rule:evenodd;fill:#22A64A;}
	.st2{fill-rule:evenodd;clip-rule:evenodd;fill:#0AA0B7;}
	.st3{fill:#0AA0B7;}
</style>
<g>
	<g>
		<g>
			<path class="st0" d="M212.26,10.74c-11.94,7.96-36.39,32.69-54.3,37.53c-17.91,4.83-40.66,7.11-49.47,6.25
				c0,0,11.14,11.14,23.75,22.67L86.69,94.11c-1.61,0.6-2.42,2.38-1.83,3.98c0.6,1.6,2.38,2.42,3.98,1.83l48.58-18.04
				c1.24,1.1,2.47,2.19,3.7,3.27l-46.32,17.2c-1.77,0.66-2.67,2.62-2.01,4.39c0.66,1.77,2.62,2.67,4.39,2.01l49.89-18.52
				c5.39,4.48,10.34,8.24,14.02,10.36c15.35,8.81,28.9,7.98,43.4,4.85c14.5-3.13,20.86-12.81,23.7-22.76
				c2.84-9.95,6.55-27.6,9.1-36.39c3.13-10.8,8.25-42.08,8.25-42.08S224.2,2.78,212.26,10.74z M220.94,37.18
				c-5.18,0-9.38-4.2-9.38-9.38c0-5.18,4.2-9.38,9.38-9.38s9.38,4.2,9.38,9.38C230.32,32.98,226.12,37.18,220.94,37.18z"/>
		</g>
	</g>
	<g>
		<path class="st0" d="M382.98,85c-16.91-46.97-23.17-56.92-32.5-85c0,0-31.61,71.29-50,86.5c-19.21,15.88-60.5,34.5-80.5,50.5
			s-35,51.5-35,51.5s26.91,11.2,47,10.5c22.65-0.79,46.06,5.59,66.41,9.23l-17.19,45.85c-1,2.66,0.35,5.63,3.01,6.63
			c2.66,1,5.63-0.35,6.63-3.01l17.95-47.86c4.89,0.61,9.54,0.92,13.88,0.78l-20.78,55.41c-1.28,3.4,0.45,7.2,3.85,8.47
			c3.4,1.28,7.2-0.45,8.47-3.85l23.58-62.91c11.92-4.03,26.28-12.27,36.35-23.61C389.93,166.35,401.18,135.54,382.98,85z
			 M237.86,177.04c-8.24,0-14.93-6.68-14.93-14.93c0-8.24,6.68-14.93,14.93-14.93c8.24,0,14.93,6.68,14.93,14.93
			C252.79,170.36,246.11,177.04,237.86,177.04z"/>
	</g>
	<g>
		<g>
			<g>
				<path class="st1" d="M620.48,156.99c1.2,34.54-5.59,69.74-14,98C606.85,222.02,612.16,185.33,620.48,156.99z"/>
			</g>
			<g>
				<path class="st1" d="M439.48,158.99c8.89,29.11,12.33,63.67,16,98C444.9,229.58,438.78,197.7,439.48,158.99z"/>
			</g>
			<g>
				<path class="st1" d="M544.48,162.99c8.73,30.15,13.04,74.67,10,110C549.14,238.33,544.48,203,544.48,162.99z"/>
			</g>
			<g>
				<path class="st1" d="M577.48,170.99c8.37,29.02,7.05,67.66,4,101c-3.75-5.68-1.68-13.19-2-20
					C578.4,229.26,576.25,198.51,577.48,170.99z"/>
			</g>
			<g>
				<path class="st1" d="M476.48,171.99c7.04,29.3,7.34,65.33,9,100C475.59,245.81,472.13,206.24,476.48,171.99z"/>
			</g>
			<g>
				<path class="st1" d="M495.48,192.99c6.71,22.99,4.61,59.51,0,83C492.37,251.05,492.69,217.99,495.48,192.99z"/>
			</g>
			<g>
				<path class="st1" d="M460.48,196.99c1.16-0.16,1.78,0.22,2,1c4.16,21.84,2.83,49.17,3,75
					C455.87,254.51,455.99,221.14,460.48,196.99z"/>
			</g>
			<g>
				<path class="st1" d="M598.48,196.99c1.16-0.16,1.78,0.22,2,1c6.39,25.41,0.77,54.07-6,75
					C592.18,248.02,596,220.51,598.48,196.99z"/>
			</g>
			<g>
				<path class="st1" d="M563.48,198.99c9.44,18.9,12.48,44.19,12,73C568.77,250.38,565.87,224.93,563.48,198.99z"/>
			</g>
			<g>
				<path class="st1" d="M510.48,200.99c2.05,23.06-1.1,49.56-5,70C501.39,247.4,505.82,221.66,510.48,200.99z"/>
			</g>
			<g>
				<path class="st1" d="M528.48,202.99c10.49,19.84,15.8,44.87,16,75C536.62,255.52,531.5,230.31,528.48,202.99z"/>
			</g>
			<g>
				<path class="st1" d="M650.48,205.99c-6.72,25.28-25.01,47.66-37,71c1.2-14.03,8.52-26.02,15-38
					C634.96,227.02,642.41,215.74,650.48,205.99z"/>
			</g>
			<g>
				<path class="st1" d="M516.48,214.99c6.13,15.79,5.98,41.01,2,59C514.53,257.61,517.32,234.49,516.48,214.99z"/>
			</g>
			<path class="st1" d="M145.48,50.99c-3.79-9.54-6.38-20.29-7-33c22.04-1.71,36.02,4.65,46,15c-3.69-2.96-2.96,5.18-7,5
				c1.23-2.1,2.77-3.9,4-6c-0.35-1.31-1.76-1.57-2-3c-7.37,3.29-8.14,13.2-15,17c3.16-7.17,9.69-10.98,12-19
				c-1.16,0.16-1.78-0.22-2-1c-4.4,7.26-10.08,13.26-13,22c-1.44-0.56-2.44-1.56-3-3C154.28,47.12,150.99,50.16,145.48,50.99z
				 M145.48,45.99c0.14,1.86,0.66,3.34,2,4c3.38-2.29,8.38-2.95,10-7C152.82,39.84,151,46.81,145.48,45.99z M157.48,19.99
				c-0.53,6.64-7.97,10-5,17c-2.84-1.86-7.51,1.36-10,3c3.12,4.64,7.73-2.55,12-3c1.28-6.72,5.58-10.42,7-17
				C160.15,19.99,158.82,19.99,157.48,19.99z M155.48,18.99c-7.06-0.39-4.36,8.98-6,14c-1.81-1.31-6.57,0.83-8,3
				c0.78,0.22,1.16,0.84,1,2C150.88,36.28,155.24,25.55,155.48,18.99z M148.48,18.99c-2.51,2.52-4.12,8.58,0,10
				C148.64,26.58,152.58,19.22,148.48,18.99z M146.48,18.99c-1,0-2,0-3,0c2.71,5.44-5.75,4.83-2,8
				C143.62,24.79,146.28,23.12,146.48,18.99z M140.48,29.99c2.83,0.83,2.59-1.41,5-1c0-0.67,0-1.33,0-2c-1,0-1.19-0.81-2-1
				C143.08,27.92,139.61,26.78,140.48,29.99z M147.48,29.99c-2.49,0.51-6.03-0.03-6,3C141.72,34.12,147.97,32.89,147.48,29.99z
				 M144.48,44.99c4.42-0.58,7.77-2.23,10-5C151.71,38.73,145.67,41.47,144.48,44.99z M172.48,24.99c-0.78-0.22-1.97-0.03-2-1
				c-4.67,2-6.02,7.31-8,12c-2.96,1.72-7.49,7.28-2,9C164.49,38.33,169.64,32.81,172.48,24.99z M162.48,20.99
				c-1.14,7.01-8.58,12.55-7,19c6.91-2.76,8.19-11.14,12-17C165.58,22.56,164.97,20.84,162.48,20.99z"/>
			<g>
				<g>
					<path class="st2" d="M319.48,59.99c3.57,3.64-8.78,5.15-5,9c-9.82,4.85-23.85,5.49-39,5c-1.55,1.45-0.88,5.12-1,8
						c9.5,2.37,21.36-1.21,31-2c-6.59,5.08-20.71,2.62-30,5c0,1.67,0,3.33,0,5c6.62,2.6,14.87-1.79,22-2c-4.29,4.38-14.45,2.88-21,5
						c-0.16,3.82,0.05,7.28,2,9c-4.17,0.72-4.57-10.68-5-17c-1.78-26.04,6.75-45.01,14-61c15.76,5.57,26.76,15.9,39,25
						c-3.22-0.02-3.49,3.92-6,6c-3.31,2.73-11.3,4.11-9,9C314.08,66.52,318.1,61.99,319.48,59.99z M291.48,29.99
						c-1.89-0.11-0.69-3.31-3-3C285.39,28.84,290.49,32.6,291.48,29.99z M294.48,31.99c3-1.75-1.43-6.18-3-3
						C293.79,28.69,292.6,31.88,294.48,31.99z M295.48,36.99c2.89-0.44,4.56-2.11,5-5c-1.43-0.24-1.69-1.65-3-2
						C295.93,32.5,293.43,33.34,295.48,36.99z M284.48,36.99c3.8,0.2,7.12,0.89,10,2c0-5.33-3.9-6.77-8-8
						C286.75,33.92,284.22,34.06,284.48,36.99z M300.48,42.99c1.27-3.4,5.55-3.79,6-8c-2.73,0.73-2.01-1.99-4-2
						C300.4,35.71,294.12,40.44,300.48,42.99z M301.48,47.99c4.72-1.62,6.95-5.72,10-9C307.52,34.6,299.25,43.08,301.48,47.99z
						 M281.48,43.99c7.4-0.06,11.66,3.01,18,4c-0.06-8.61-8.81-8.52-16-10C282.91,40.08,281.01,40.85,281.48,43.99z M303.48,50.99
						c2.31-0.31,1.11,2.89,3,3c4.14-3.19,9.09-5.57,11-11C311.2,38.34,306.7,46.6,303.48,50.99z M307.48,53.99
						c-0.05,3.05,0.91,5.09,3,6c3.94-4.06,10.09-5.91,12-12c-2.04-0.29-1.96-2.71-4-3C315.29,48.46,313,52.84,307.48,53.99z
						 M279.48,45.99c0.65,3.98-2.65,4.02-2,8c9.25,1.1,18.13-3.01,26,0C300.5,46.31,289.02,47.12,279.48,45.99z M276.48,54.99
						c0.49,3.16-1.8,3.53-1,7c11,0,22,0,33,0c0-3.34-3.25-3.41-3-7C295.27,54.66,283.93,55.51,276.48,54.99z M274.48,63.99
						c0,3,0,6,0,9c13.54-1.12,31.05,1.71,37-7C303.72,59.03,287.33,66.35,274.48,63.99z"/>
				</g>
			</g>
			<path class="st1" d="M129.48,109.99c0.38-21.95,11.13-33.53,22-45c3.14-0.47,2.64,2.69,5,3c-0.56-1.44-1.56-2.44-3-3
				c11.36-11.62,43.93-11.19,46,5c0.96,7.5-5.39,17.97-10,23C177.77,105.78,153.28,113.68,129.48,109.99z M175.48,83.99
				c0.95,4.72,2.18,9.16,3,14c-0.22,1.26-1.56,2.04,1,2C179.9,92.91,178.37,87.77,175.48,83.99z M166.48,105.99
				c-0.9-5.1-1.74-10.26-5-13c-1.6,1.73-3.74,2.93-6,4c0.55,4.11,2.87,6.47,3,11c6.62-1.17,0.26-8.51,0-12c4.59,1.07,1.84,9.5,6,11
				C164.71,106.21,165.32,105.83,166.48,105.99z M154.48,108.99c5.58-0.24,1.03-10.08-2-11
				C152.38,102.43,155.28,103.86,154.48,108.99z M136.48,86.99c6.63,2.38,11.19,11.01,18,10c-3.57-6.76-9.5-11.17-17-14
				C137.71,84.88,136.36,85.2,136.48,86.99z M151.48,84.99c-2.98-2.81-7.73-7.38-11-6c0.04,1.38-0.47,2.2-1,3
				c7.59,2.74,10.95,9.72,18,13C159.22,91.66,154.38,87.72,151.48,84.99z M155.48,84.99c-2.05-4.81-8.18-10.22-12-10
				c4.54,7.13,11.28,12.05,18,17C163.46,89.04,158.17,86.44,155.48,84.99z M166.48,88.99c0.47-3.53-4.05-7.05-7-10
				c-3.29-3.29-7.14-7.27-11-9c-0.21,1.12-1.11,1.56-2,2C151.9,78.32,158.19,88.85,166.48,88.99z M177.48,57.99
				c-6.85,1.69-10.42,0.51-15,4c7.42,4.77,12.85,12.35,18,18c2.94-8.1-9.45-14.43-9-20c4.62,5.38,8.91,11.09,12,18
				C187.51,72.26,179.34,64.21,177.48,57.99z M159.48,61.99c-0.27,2.06-3.73,0.94-4,3c4.8,5.4,10.27,14.67,18,20
				c2.1-7.91-14.09-11.13-14-17c6.36,4.31,11.33,10.01,18,14C175.31,71.5,166.65,67.49,159.48,61.99z M151.48,66.99
				c-0.88,4.22,4.86,6.86,8,10c3.25,3.25,5.92,8.74,11,9C165.28,78.53,160.23,70.91,151.48,66.99z M178.48,58.99
				c4.33,4,5.55,11.11,9,16C189.51,69.1,185.27,56.03,178.48,58.99z M190.48,72.99c6.06-2.12-0.5-16.47-6-13
				C188.6,62.21,188.37,68.77,190.48,72.99z M197.48,75.99c0.14-3.14-2.56-3.44-5-4C192.83,74.65,195.11,75.37,197.48,75.99z
				 M189.48,73.99c1.05,3.61,3.8,5.54,6,8c-0.41-2.41,1.83-2.17,1-5C193.6,76.54,193.36,73.45,189.48,73.99z M197.48,72.99
				c1.3-1.33,0.62-3.02-1-4C195.19,70.32,195.17,72.71,197.48,72.99z M195.48,68.99c3.1-2.55-2.08-8.66-4-6
				C194.11,63.7,192.44,68.7,195.48,68.99z M185.48,78.99c3.76,0.27,4.03,9.26,7,7C191.24,83.54,185.42,76.22,185.48,78.99z
				 M193.48,84.99c1.56-3.08-3.31-6.98-6-9C188.7,79.78,191.45,82.02,193.48,84.99z M179.48,82.99c3.71,2.3,1.77,10.23,6,12
				c0.64-6.31-1.37-9.96-3-14c4.2,1.47,3.12,8.21,5,12C194.39,89.01,184.74,74.44,179.48,82.99z M182.48,96.99
				c-0.29-6.05-1.54-11.13-5-14C179.3,87.51,179.65,93.49,182.48,96.99z M175.48,94.99c0.58,1.76-1.21,5.88,1,6
				c-0.23-6.1,0.7-13.37-4-15C170.77,88.44,175.22,91.4,175.48,94.99z M167.48,88.99c-0.82,3.2,2.86,9.53,4,14
				C171.73,96.75,171.18,91.29,167.48,88.99z M164.48,90.99c-0.32,3,1.84,11.24,5,14C168.6,99.54,168.8,93.01,164.48,90.99z
				 M172.48,101.99c4.3-2.34,0.46-12.85-3-14C171.24,91.54,173.94,98.45,172.48,101.99z M134.48,88.99c0.38,2.35,5.39,7.74,8,9
				c2.58,1.25,6.19,3.02,8,0C144.89,95.76,139.99,88.04,134.48,88.99z M133.48,92.99c0.22,1.89-1.13,2.21-1,4c3.82,0.9,11,6.66,13,3
				C140.02,99.12,139.15,93.66,133.48,92.99z M132.48,97.99c-3.4,4.38,8.14,8.86,9,3C137.57,100.91,135.25,99.23,132.48,97.99z
				 M131.48,102.99c0,0.67,0,1.33,0,2c-0.17,2.17,3.55,0.45,5,1c-1.3,1.33-1.32,3.72,1,4c2.2-2.11-1.28-2.96-1-6
				C133.66,104.82,133.89,102.58,131.48,102.99z M138.48,104.99c0.12,2.55,0.19,5.14,3,5c0.55-1.45-1.17-5.17,1-5
				c-0.2,2.86-0.12,5.46,3,5c-1.15-2.18-0.2-6.47-3-7C142.24,104.75,140.76,105.27,138.48,104.99z M152.48,108.99
				c2.09-2.15,0.12-8.74-3-9C148.64,101.56,149.51,108.11,152.48,108.99z M146.48,109.99c5.14,0.46,2.75-8.46-1-8
				C144.72,105.76,146.7,106.77,146.48,109.99z"/>
			<g>
				<g>
					<path class="st2" d="M439.48,105.99c-15.27,33.44-43.04,67.26-88,71c-26.21,2.18-48.15-6.87-44-32
						c4.51-27.35,34.84-50.29,68-53C403.69,89.69,421.24,96.96,439.48,105.99z M386.48,133.99c3.14-0.52,5.58-1.75,8-3
						c-4.46-9.87-4.83-23.83-5-38c-2.67,0-5.33,0-8,0C380.67,105.21,383.63,122.13,386.48,133.99z M395.48,129.99
						c11.75-3.2,1.99-23.14,5-36c-1.66-1.67-5.87-0.8-9-1C391,107.14,391.62,120.19,395.48,129.99z M379.48,136.99
						c2.93,0.26,3.07-2.26,6-2c-3.51-12.16-5.57-25.76-6-41c-2.33,0-4.67,0-7,0C374.3,108.84,378.19,121.62,379.48,136.99z
						 M403.48,126.99c10.71-3.47,3.88-20.66,5-32c-2.35-0.32-3.75-1.58-7-1C402.63,105.62,400.83,115.8,403.48,126.99z
						 M363.48,95.99c-2.22,15.22,6.16,28.5,6,45c3.18-0.15,4.4-2.27,8-2c0.4-17.07-5.47-27.86-6-44
						C368.6,95.11,364.94,94.44,363.48,95.99z M364.48,122.99c-1.87-8.58-1.95-18.25-4-26c-0.22-0.78-0.84-1.16-2-1
						c-0.17,1.17-1.58,1.09-3,1c-0.87,16.27,4.15,34.22,10,47C371.69,139.48,366.17,130.75,364.48,122.99z M410.48,121.99
						c3.08,0.74,1.92-2.74,5-2c-2.01-7.38,3.8-12.79,3-22c-3.18-0.15-4.4-2.27-8-2C409.87,106.01,411.65,114.08,410.48,121.99z
						 M351.48,100.99c3.13,14.67-1.3,38.54,7,46c6.83-2.94,1.53-11.89,0-18c-2.37-9.49-5.7-19.14-5-30c-0.22-0.78-0.84-1.16-2-1
						C351.1,99.42,350.28,99.68,351.48,100.99z M416.48,117.99c7.7-0.96,9.24-8.09,9-17c-3.15,0.48-3.91-1.42-6-2
						C420.53,107.37,416.52,110.69,416.48,117.99z M352.48,138.99c-1.94-11.45-0.18-27.13-3-38c-0.22-0.78-0.84-1.16-2-1
						c-2.36,1.97-5.2,3.46-8,5c0.65,2.75,1.55,5.62,2,9c1.89,14.19,1.99,35.01,13,35C355.81,145.89,353.16,142.99,352.48,138.99z
						 M425.48,112.99c4.61-0.39,6.36-3.64,7-8c-1.9-0.43-2.51-2.15-5-2C426.39,105.89,426.58,110.09,425.48,112.99z M335.48,137.99
						c3.69,8.81,7.11,17.82,14,13c-9-10-7.66-30.34-12-45C323.52,111.71,330.03,124.99,335.48,137.99z M432.48,109.99
						c2.55-0.11,3.5-1.83,5-3c-1.35-0.31-1.91-1.42-4-1C433.56,107.73,433.26,109.1,432.48,109.99z M432.48,112.99
						c1.84,3.1,5.61-2.01,3-3C435.37,111.88,432.18,110.69,432.48,112.99z M427.48,113.99c0.44,2.89,2.11,4.56,5,5
						C435.66,115.9,430.58,110.82,427.48,113.99z M421.48,116.99c0.48,4.52,4.57,5.43,7,8c0.49-1.18,1.07-2.27,2-3
						c-0.66-3.68-3.69-4.98-6-7C424.07,116.25,423.19,117.03,421.48,116.99z M318.48,125.99c2.57,5.23,5.4,11.33,9,17
						c3.05,4.8,6.29,13.66,14,11c-7.22-10.78-10.98-25.02-16-38C323.54,119.72,319.82,121.66,318.48,125.99z M416.48,119.99
						c1.07,5.27,4.98,7.69,9,10C429.58,125.59,421.08,118.36,416.48,119.99z M410.48,123.99c1.4,5.93,6.25,8.42,10,12
						C426.74,131.66,415.84,119.47,410.48,123.99z M404.48,126.99c2.31,6.36,5.11,12.22,12,14c0.01-1.99,2.73-1.27,2-4
						c-4.21-3.13-7.17-7.49-10-12C407.83,126.33,406.35,126.85,404.48,126.99z M313.48,134.99c0.09,8.04,15.24,24.45,20,22
						c-0.46-4.11-4.09-8.34-7-13c-2.89-4.63-6.64-9.45-8-15c-0.21-1.12-1.11-1.56-2-2C316.32,130.07,313.45,131.6,313.48,134.99z
						 M411.48,145.99c0.29-2.04,2.71-1.96,3-4c-7.54-1.46-6.58-11.42-14-13C398.92,136.07,406.48,142.2,411.48,145.99z
						 M391.48,134.99c4.58,5.75,6.64,14.02,15,16c0.21-1.12,1.11-1.56,2-2c-2.17-7.83-8.49-11.51-12-18
						C395.69,133.2,391.78,132.29,391.48,134.99z M383.48,136.99c2.62,9.04,8.88,14.45,15,20c0.7-2.64,4.55-2.11,5-5
						C394.39,149.44,394.99,131.03,383.48,136.99z M327.48,158.99c-1.48-4.23-5.47-6.69-8-10c-3.03-3.96-4.33-8.52-8-12
						C307.05,146.89,316.18,164.98,327.48,158.99z M373.48,140.99c-1.9,10,10.07,19.86,18,20
						C383.72,156.09,380.05,147.09,373.48,140.99z M387.48,154.99c2.93,2.99,6.74,7.99,9,2c-8.56-3.44-8.77-15.23-18-18
						C375.64,144.45,384.6,152.05,387.48,154.99z M371.48,153.99c2.84,4.06,13.21,10.79,16,10c-6.58-6.42-14.07-11.93-18-21
						C367.17,145.14,369.5,151.16,371.48,153.99z M370.48,153.99c-2.11-2.83-2.27-4.93-4-8c-0.22-0.78-0.84-1.16-2-1
						c-0.27,2.06-3.73,0.94-4,3c6.88,6.79,11.52,15.81,22,19C382.18,161.56,374.68,159.61,370.48,153.99z M311.48,162.99
						c2,0,4,0,6,0c0.07-4.31-6.14-10.35-9-15C307.83,154.64,309.75,158.73,311.48,162.99z M368.48,163.99c3.42,3.18,7.28,8.69,10,3
						c-9.24-4.1-13.6-13.07-21-19C357.55,153.73,363.95,159.78,368.48,163.99z M360.48,161.99c2.84,3.71,5.14,11.94,11,9
						c-3.38-5.62-12.02-14.64-18-21C351.52,154.42,357.49,158.09,360.48,161.99z M346.48,154.99c4.25,8.08,8.75,15.92,19,18
						c-3.64-8.03-11.16-12.17-14-21c-1,0-2,0-3,0C348.39,153.57,345.93,152.77,346.48,154.99z M359.48,173.99
						c-2.61-4.21-7.12-6.07-10-10c-2.41-3.29-2.39-7.56-6-10C340.94,164.34,346.95,178.61,359.48,173.99z M346.48,175.99
						c0.92-5.47-7.16-10.02-5-20c-1,0-2,0-3,0C339.47,164.34,340.78,172.37,346.48,175.99z M333.48,159.99
						c1.71,5.31,1.83,17.48,9,14c-2.98-4.02-5.55-8.45-5-16c-0.22-0.78-0.84-1.16-2-1C335.39,158.57,332.93,157.77,333.48,159.99z
						 M327.48,159.99c-0.94,2.18,0.61,8.97,0,14c3.74-1.33,6.91,2.98,9,0c-3.7-3.3-2.26-11.74-6-15
						C330.32,160.16,328.9,160.08,327.48,159.99z M325.48,172.99c0-3.67,0-7.33,0-11c-1,0-2,0-3,0
						C320.5,165.21,321.66,172.4,325.48,172.99z M320.48,170.99c0.89-3.65-1.77-5.33,0-7c-3.65-0.89-5.33,1.77-7,0
						C313.94,168.2,318.02,168.79,320.48,170.99z"/>
				</g>
			</g>
			<g>
				<path class="st1" d="M633.48,201.99c-2.11,24.89-15.41,47.25-27,66c-1.34,0.2-1.86,4.15-2,0
					C613.48,245.32,622.37,222.54,633.48,201.99z"/>
			</g>
			<g>
				<path class="st1" d="M425.48,203.99c6.92,6.94,12.06,19.48,17,31c5.08,11.85,8.71,24.35,14,35
					C442.12,255.96,432.48,228.66,425.48,203.99z"/>
			</g>
			<path class="st1" d="M97.48,233.99c-3.71,3.95-6.21,9.12-9,14C91.3,247.12,97.1,240.62,97.48,233.99
				c11.96,12.38,16.63,41.87-6,43c-31.67,1.59-53.69-37.54-45-72C69.67,208.48,86.75,218.06,97.48,233.99z M86.48,245.99
				c4.57-3.43,7.88-8.12,9-15C91.46,234.96,89.52,241.02,86.48,245.99z M91.48,227.99c0.61,7.8-8.67,10.42-7,16
				C88.61,241.1,93.7,233.89,91.48,227.99z M89.48,225.99c0.3,6.98-7.9,10.74-7,15C86.47,238.29,91.44,231.3,89.48,225.99z
				 M79.48,240.99c2.65-4.7,9.88-10.11,8-16c-1.85,5.81-6.29,9.04-9,14c-0.24-1.76-1.72-2.28-4-2c-6.93,4.73-17.27,6.06-22,13
				c0.78,0.22,1.16,0.84,1,2C62.2,252.27,69.72,242.98,79.48,240.99z M84.48,221.99c-0.99,6.01-6.39,7.61-8,13
				C80.91,237.11,88.5,225.09,84.48,221.99z M72.48,229.99c1.26,0.41,2.04,1.29,2,3c4.64-2.69,7.76-6.91,9-13
				C78.06,218.32,76.88,227.51,72.48,229.99z M76.48,215.99c-1.41,4.59-5.56,6.44-7,11c5.13,2.45,7.93-5.15,10-9
				C78.06,217.75,77.8,216.34,76.48,215.99z M72.48,213.99c0.32,5.32-6.81,7.4-5,11c4.33-1.66,5.77-6.23,8-10
				C74.11,215.03,73.29,214.52,72.48,213.99z M46.48,232.99c0.05,1.28,1.28,1.38,1,3c7.56-2.21,20.17-4.35,20-11
				C59.65,226.83,51.01,227.85,46.48,232.99z M60.48,220.99c-4.67-0.04-14.3,4.17-15,8c5.39,0.52,14.4-3.45,20-6
				C64.07,221.78,62.69,221.01,60.48,220.99z M64.48,221.99c4.46-0.87,5.75-4.92,7-9C66.35,213.19,65.76,217.94,64.48,221.99z
				 M57.48,207.99c-0.59,2.08-2.1,3.23-3,5c1.38-0.04,2.2,0.47,3,1C58.06,211.86,60.93,208.54,57.48,207.99z M63.48,209.99
				c-4.17-0.5-4.8,2.53-5,6C62.31,216.15,61.73,211.91,63.48,209.99z M61.48,218.99c3.79-0.34,6.34-5.68,5-8
				C63.08,211.72,60.08,216.61,61.48,218.99z M72.48,230.99c-6.02-5.89-13.83,6.66-24,6c-0.83,2.83,1.41,2.59,1,5
				C58.33,239.51,66.36,236.2,72.48,230.99z M71.48,233.99c-6.16,4.5-15.93,5.4-21,11c3.05,2.92,8.1-1.03,12-3
				c4.36-2.19,8.31-5.63,13-6c0.04-1.38-0.47-2.2-1-3C73.11,232.95,72.29,233.46,71.48,233.99z M81.48,241.99
				c-10.15,2.95-19.91,7.62-26,14C64.82,255.9,75.53,248.77,81.48,241.99z M54.48,210.99c0.06-0.61,0.15-1.18,1-1c0-0.67,0-1.33,0-2
				c-1.96,0.5-6.38-2.18-4,0C53.37,208.1,52.18,211.3,54.48,210.99z M46.48,212.99c2,0,4,0,6,0c0.46-3.12-2.14-3.2-5-3
				C47.53,211.37,47.01,212.19,46.48,212.99z M46.48,214.99c0,1,0,2,0,3c4.09-0.24,9.64,0.97,11-2
				C56.03,213.59,49.08,213.12,46.48,214.99z M46.48,218.99c0.41,2.41-1.83,2.17-1,5c6.33-0.34,10.33-3,15-5
				C57.29,217.04,52.02,220.11,46.48,218.99z M71.48,251.99c-4.88,2.74-11.37,4.06-13,7c7.3-5.44,24.99-5.58,26-14
				C80.47,244.13,76.14,249.38,71.48,251.99z M87.48,247.99c-8.28,5.39-20.4,6.94-28,13c2.32,0.68,2.68,3.32,5,4
				C71.2,258.37,85.61,259.45,87.48,247.99z M90.48,251.99c-3.38-1.29-5.14,3.13-8,5c-5.39,3.52-12.72,4.83-17,9
				c2.59,1.08,3.72,3.62,7,4C78.15,263.66,88.96,262.47,90.48,251.99z M103.48,269.99c-0.78-0.22-1.16-0.84-1-2
				c-3.86,0.8-4.45,4.89-7,7C98.94,274.11,102.05,272.89,103.48,269.99z M91.48,254.99c-3.66,7.67-12.29,10.38-18,16
				C82.07,277.7,95.93,259.83,91.48,254.99z M94.48,258.99c-2.91,6.43-8.63,10.04-13,15C88.67,276.53,98.6,264.42,94.48,258.99z
				 M88.48,274.99c7.75,0.42,9.51-5.16,12-10c-1.99-0.01-1.27-2.73-4-2C95.42,268.59,91.17,271,88.48,274.99z M98.48,237.99
				c-1.62,4.92-8.83,8.87-8,13C94.72,252.63,100.46,242.5,98.48,237.99z M100.48,240.99c-0.88,6.12-5.9,8.1-8,13
				C98.25,253.24,106.1,246.82,100.48,240.99z M95.48,255.99c3.2-2.47,7.61-3.73,9-8C102.3,250.83,94.59,253.4,95.48,255.99z
				 M95.48,257.99c3,0.92,9.29-2.41,10-7C101.63,252.8,98.5,255.34,95.48,257.99z M97.48,260.99c2.76,2.47,5.08-1.57,9-1
				c0-1.67,0-3.33,0-5C102.82,256.33,99.04,257.55,97.48,260.99z M100.48,263.99c1.5,1.38,5.74-0.14,6-3
				C104.26,261.77,101.06,261.57,100.48,263.99z M104.48,268.99c0.31-1.35,1.42-1.91,1-4C101.74,264.57,102.41,267.99,104.48,268.99
				z"/>
			<path class="st1" d="M1.48,285.99c2.18,0.18,3.18-0.82,3-3C1.8,282.3,2.55,285.06,1.48,285.99c-1.53-3.12,1.87-3.58,1-9
				c1.98-3.19-0.31,6.22,3,5c2.28-2.05,0.03-8.64,2-11c-5.35,2.59-7.53,6.82-7,13c-3.86-15.43,16.18-20.17,31-17
				c-0.52,1.48-1.48,2.52-2,4c2.31,0.31,1.11-2.89,3-3c10.08,3.92,18.67,9.33,23,19c-2.1,1.23-3.9,2.77-6,4c0.91,1.75,0.34,4.99,2,6
				c-0.15-4.33,3.08-4.7,4-10c1.6,1.4,2.55,3.45,3,6c-1.84-2.46-2.49-3.61-5-1c0.42,1.06,5.48,2.32,5,1c0.17,6.51-16.38,7.07-26,9
				c-0.03-0.97-1.22-0.78-2-1c-0.63-3.37,1.29-9.29-1-11c-2.89,0.44,0.89,7.56-2,8c0.1-2.18,0.2-12.48-1-7c-1.17-0.16-0.84-1.82-1-3
				c-1.49,0.85-1.45,3.22-2,5c-2.31,2.29,0.34-3.12,0-5c-3.61-0.95-1.39,3.94-2,6c-1.67,2.88-0.8-5.11-1-7
				c-1.41,5.17-1.74,15.16-2,5c-0.04-1.67,0.03-3.33,0-5c-1.48,1.41-2.15,3.19-2-1c-3.23-0.89-1.41,3.26-3,4
				c-2.18,2.38,0.5-2.04,0-4c-2.09,0.91-3.05,2.95-3,6c-2.58-2.25-1.83-5.62,0-8c-2.69-0.69-1.93,2.07-3,3c-2.18,2.38,0.5-2.04,0-4
				c-1.76,0.9-3.1,2.24-4,4c-0.38,5.29,4.05-0.46,3,5c0.94-5.07,4.41,4.14,6,4c0.59-0.05,1.52-2.87,1-3c2.32,0.57,2.66,8.75,3,1
				c0.31-7.05,1.44-0.82,1,3c-0.49,4.71,5.94-0.71,4-1c0.99,0.15,4.44,6.53,7,3c1.22,3.57-7.38,1.39-9,1
				C12.41,298.3,3.5,291,1.48,285.99z M9.48,282.99c-1.31-5.01,4.57-12.26,0-14C7.91,271.6,5.38,281.01,9.48,282.99z M13.48,283.99
				c-1.16-7.18,4.5-12.81,3-17C11.58,267.72,7.59,282.06,13.48,283.99z M19.48,276.99c1.56-3.17,2.96-5.93,4-9
				c0.61-0.06,1.18-0.15,1-1c-1.67,0-3.33,0-5,0c-3.11,4.56-5.17,10.17-5,18C17.2,283.52,18.19,279.63,19.48,276.99z M29.48,267.99
				c-1.89,0.22-2.21-1.13-4-1c-2.6,6.4-7.73,10.27-8,19C22.56,281.07,25.88,274.39,29.48,267.99z M22.48,286.99
				c1.14-4.55,6.32-10.32,5-14C26.83,277.9,17.51,282.9,22.48,286.99z M23.48,286.99c6.5-3.17,7.57-11.76,11-18
				C27.63,271.81,27.24,281.08,23.48,286.99z M35.48,269.99c-3,6-6,12-9,18c7.09,0.98,8.65-11.03,12-17
				C37.11,271.03,36.29,270.52,35.48,269.99z M31.48,288.99c5-3.66,7.03-10.3,10-16C35.32,275.5,34.43,283.27,31.48,288.99z
				 M34.48,289.99c4.56,0.89,4.04-3.29,5-6c2.52-1.89,6.63-6.13,5-9C38.52,277.36,37.04,284.22,34.48,289.99z M46.48,276.99
				c-2.92,4.41-6.89,7.78-8,14c5.88-1.78,7.24-8.09,11-12C48.06,278.75,47.8,277.34,46.48,276.99z M43.48,299.99
				c1.63-1.62-0.89-4.18,0-8c2.77-2.51,10.24-8.91,6-12C47.08,285.28,37.53,292.89,43.48,299.99z M31.48,289.99
				c0.74,3.93-2.11,11.44,3,11C33.74,297.06,36.6,289.55,31.48,289.99z M12.48,284.99C7.29,287.12,10.71,290.54,12.48,284.99
				L12.48,284.99z M35.48,299.99c3.08-0.7,1.92-0.7,5,0c-0.61-2.39,1.25-7.25-1-8c-0.56,2.9-1.56-1.53-3-1
				C34.81,292.65,35.69,296.86,35.48,299.99z M44.48,292.99c-0.13,2.46-0.15,4.82,1,6c3.21,0.62,1.37-3.6,4-1c0-1.67,0-3.33,0-5
				C45.23,295.55,48.74,295.55,44.48,292.99z M46.48,291.99c2.99-1.68,6.2-3.14,7-7c-0.21-1.12-1.11-1.56-2-2
				C51.09,287.26,47.06,287.9,46.48,291.99z"/>
		</g>
	</g>
	<g>
		<path class="st3" d="M121.79,314.44c0,2.61-0.49,5.07-1.46,7.4c-0.97,2.32-2.37,4.37-4.2,6.13c-1.89,1.81-4.03,3.2-6.4,4.16
			c-2.37,0.96-4.83,1.44-7.37,1.44c-2.22,0-4.4-0.38-6.54-1.13c-2.13-0.75-4.09-1.84-5.86-3.25c-2.29-1.83-4.05-4.01-5.27-6.55
			c-1.22-2.54-1.83-5.27-1.83-8.19c0-2.62,0.48-5.08,1.44-7.38c0.96-2.3,2.37-4.35,4.23-6.14c1.83-1.78,3.95-3.15,6.36-4.13
			c2.42-0.98,4.9-1.47,7.46-1.47c2.54,0,5.01,0.49,7.41,1.47c2.4,0.98,4.52,2.36,6.36,4.13c1.84,1.79,3.25,3.84,4.21,6.15
			C121.31,309.38,121.79,311.84,121.79,314.44z M102.37,326.62c3.3,0,6.03-1.16,8.18-3.47c2.15-2.32,3.23-5.22,3.23-8.7
			c0-3.45-1.09-6.36-3.26-8.71s-4.89-3.54-8.14-3.54c-3.3,0-6.04,1.17-8.22,3.52c-2.18,2.35-3.26,5.26-3.26,8.73
			c0,3.52,1.07,6.43,3.21,8.73C96.24,325.47,99,326.62,102.37,326.62z"/>
		<path class="st3" d="M128.37,332.6v-36.46h8.96c4.78,0,8.31,0.91,10.6,2.74s3.42,4.65,3.42,8.47c0,3.54-1.15,6.31-3.45,8.32
			c-2.3,2.01-5.48,3.01-9.55,3.01h-2.14v13.92H128.37z M136.21,312.6h1.12c2.12,0,3.67-0.44,4.63-1.32s1.44-2.29,1.44-4.23
			c0-1.79-0.48-3.1-1.44-3.92c-0.96-0.82-2.51-1.23-4.63-1.23h-1.12V312.6z"/>
		<path class="st3" d="M156.73,332.6v-36.46h21.47v6.57h-13.67v7.5h13.67v6.62h-13.67v9.14h13.67v6.62H156.73z"/>
		<path class="st3" d="M185.84,332.6v-36.46h8.09l16.14,21.22c0.46,0.6,0.97,1.44,1.53,2.53c0.56,1.09,1.13,2.37,1.73,3.85
			c-0.18-1.08-0.32-2.15-0.4-3.21c-0.08-1.06-0.12-2.39-0.12-3.98v-20.39h7.45v36.46h-7.65l-16.58-21.62
			c-0.47-0.6-0.97-1.44-1.52-2.53s-1.13-2.39-1.74-3.9c0.18,1.05,0.32,2.1,0.4,3.17c0.08,1.07,0.12,2.42,0.12,4.05v20.82H185.84z"/>
		<path class="st3" d="M228.38,332.6v-36.46h7.79v29.83h12.45v6.62H228.38z"/>
		<path class="st3" d="M283.98,296.14v22.69c0,4.95-1.3,8.64-3.91,11.08s-6.53,3.66-11.78,3.66c-5.33,0-9.3-1.22-11.9-3.66
			c-2.61-2.44-3.91-6.13-3.91-11.08v-22.69h7.75v21.47c0,3,0.66,5.27,1.99,6.79c1.33,1.52,3.31,2.28,5.95,2.28
			c2.66,0,4.67-0.76,6.03-2.29s2.04-3.79,2.04-6.77v-21.47H283.98z"/>
		<path class="st3" d="M321.41,305.63c-1.58-1.41-3.2-2.44-4.86-3.1s-3.44-0.98-5.33-0.98c-3.88,0-6.98,1.16-9.29,3.49
			c-2.31,2.32-3.46,5.45-3.46,9.36c0,3.83,1.07,6.88,3.21,9.13c2.14,2.25,5.06,3.37,8.77,3.37c2.11,0,4.07-0.35,5.88-1.06
			s3.49-1.76,5.03-3.17l-0.05,7.99c-1.66,0.98-3.4,1.71-5.22,2.19c-1.82,0.48-3.73,0.72-5.74,0.72c-5.81,0-10.58-1.8-14.31-5.42
			c-3.73-3.61-5.59-8.2-5.59-13.76c0-5.54,1.87-10.12,5.6-13.72c3.73-3.6,8.55-5.4,14.44-5.4c1.97,0,3.88,0.21,5.73,0.62
			c1.84,0.42,3.66,1.05,5.45,1.92L321.41,305.63z"/>
		<path class="st3" d="M328.66,332.6v-36.46h7.79v14.62h15.81v-14.62h7.79v36.46h-7.79v-15.24h-15.81v15.24H328.66z"/>
		<path class="st3" d="M381.8,302.76v29.83h-7.82v-29.83h-8.92v-6.62h25.65v6.62H381.8z"/>
		<path class="st3" d="M393.48,327.96l4.33-4.91c0.55,1.34,1.43,2.4,2.64,3.17c1.21,0.77,2.57,1.16,4.08,1.16
			c1.83,0,3.27-0.43,4.33-1.29c1.06-0.86,1.59-2.02,1.59-3.49c0-1.73-1.77-3.44-5.3-5.15c-1.14-0.55-2.05-1-2.71-1.34
			c-3.19-1.66-5.4-3.28-6.62-4.87s-1.84-3.47-1.84-5.67c0-3,1.19-5.47,3.57-7.41c2.38-1.93,5.47-2.9,9.28-2.9
			c2.21,0,4.11,0.39,5.71,1.16c1.6,0.77,3.02,1.98,4.25,3.62l-4.61,4.41c-0.55-1.06-1.27-1.86-2.18-2.38
			c-0.91-0.52-2-0.79-3.27-0.79c-1.54,0-2.79,0.39-3.74,1.16c-0.95,0.77-1.42,1.77-1.42,3c0,1.93,1.88,3.69,5.63,5.28
			c0.75,0.32,1.32,0.56,1.72,0.75c3.09,1.41,5.38,3,6.86,4.78s2.23,3.8,2.23,6.08c0,3.42-1.17,6.15-3.5,8.18
			c-2.33,2.03-5.47,3.05-9.4,3.05c-2.79,0-5.18-0.48-7.17-1.44C395.94,331.16,394.46,329.77,393.48,327.96z"/>
		<path class="st3" d="M453.74,305.63c-1.58-1.41-3.2-2.44-4.86-3.1s-3.44-0.98-5.33-0.98c-3.88,0-6.98,1.16-9.29,3.49
			c-2.31,2.32-3.46,5.45-3.46,9.36c0,3.83,1.07,6.88,3.21,9.13c2.14,2.25,5.06,3.37,8.77,3.37c2.11,0,4.07-0.35,5.88-1.06
			s3.49-1.76,5.03-3.17l-0.05,7.99c-1.66,0.98-3.4,1.71-5.22,2.19c-1.82,0.48-3.73,0.72-5.74,0.72c-5.81,0-10.58-1.8-14.31-5.42
			c-3.73-3.61-5.59-8.2-5.59-13.76c0-5.54,1.87-10.12,5.6-13.72c3.73-3.6,8.55-5.4,14.44-5.4c1.97,0,3.88,0.21,5.73,0.62
			c1.84,0.42,3.66,1.05,5.45,1.92L453.74,305.63z"/>
		<path class="st3" d="M460.99,332.6v-36.46h7.79v14.62h15.81v-14.62h7.79v36.46h-7.79v-15.24h-15.81v15.24H460.99z"/>
		<path class="st3" d="M537.84,314.44c0,2.61-0.49,5.07-1.46,7.4c-0.97,2.32-2.37,4.37-4.2,6.13c-1.89,1.81-4.03,3.2-6.4,4.16
			c-2.37,0.96-4.83,1.44-7.37,1.44c-2.22,0-4.4-0.38-6.54-1.13c-2.13-0.75-4.09-1.84-5.86-3.25c-2.29-1.83-4.05-4.01-5.27-6.55
			c-1.22-2.54-1.83-5.27-1.83-8.19c0-2.62,0.48-5.08,1.44-7.38s2.37-4.35,4.23-6.14c1.83-1.78,3.95-3.15,6.36-4.13
			c2.42-0.98,4.9-1.47,7.46-1.47c2.54,0,5.01,0.49,7.41,1.47c2.4,0.98,4.52,2.36,6.36,4.13c1.84,1.79,3.25,3.84,4.21,6.15
			C537.36,309.38,537.84,311.84,537.84,314.44z M518.41,326.62c3.3,0,6.03-1.16,8.18-3.47c2.15-2.32,3.23-5.22,3.23-8.7
			c0-3.45-1.09-6.36-3.26-8.71s-4.89-3.54-8.14-3.54c-3.3,0-6.04,1.17-8.22,3.52c-2.18,2.35-3.26,5.26-3.26,8.73
			c0,3.52,1.07,6.43,3.21,8.73C512.29,325.47,515.04,326.62,518.41,326.62z"/>
		<path class="st3" d="M581.74,314.44c0,2.61-0.49,5.07-1.46,7.4c-0.97,2.32-2.37,4.37-4.2,6.13c-1.89,1.81-4.03,3.2-6.4,4.16
			c-2.37,0.96-4.83,1.44-7.37,1.44c-2.22,0-4.4-0.38-6.54-1.13c-2.13-0.75-4.09-1.84-5.86-3.25c-2.29-1.83-4.05-4.01-5.27-6.55
			c-1.22-2.54-1.83-5.27-1.83-8.19c0-2.62,0.48-5.08,1.44-7.38s2.37-4.35,4.23-6.14c1.83-1.78,3.95-3.15,6.36-4.13
			c2.42-0.98,4.9-1.47,7.46-1.47c2.54,0,5.01,0.49,7.41,1.47c2.4,0.98,4.52,2.36,6.36,4.13c1.84,1.79,3.25,3.84,4.21,6.15
			C581.26,309.38,581.74,311.84,581.74,314.44z M562.32,326.62c3.3,0,6.03-1.16,8.18-3.47c2.15-2.32,3.23-5.22,3.23-8.7
			c0-3.45-1.09-6.36-3.26-8.71s-4.89-3.54-8.14-3.54c-3.3,0-6.04,1.17-8.22,3.52c-2.18,2.35-3.26,5.26-3.26,8.73
			c0,3.52,1.07,6.43,3.21,8.73C556.19,325.47,558.95,326.62,562.32,326.62z"/>
		<path class="st3" d="M588.31,332.6v-36.46h7.79v29.83h12.45v6.62H588.31z"/>
		<path d="M93.57,363.19c1.77,0.76,3.11,1.76,4.01,3.01c0.9,1.25,1.35,2.74,1.35,4.45c0,2.51-0.8,4.52-2.39,6.06
			c-1.59,1.53-3.71,2.3-6.33,2.3c-2.15,0-3.94-0.55-5.39-1.65s-2.43-2.66-2.94-4.68l2.94-1.45c0.4,1.65,1.05,2.9,1.96,3.75
			c0.91,0.85,2.05,1.27,3.43,1.27c1.62,0,2.94-0.47,3.94-1.4s1.51-2.15,1.51-3.66c0-1.22-0.35-2.27-1.05-3.17
			c-0.7-0.9-1.76-1.66-3.17-2.28l-3.31-1.41c-1.81-0.76-3.16-1.73-4.05-2.92c-0.89-1.19-1.33-2.62-1.33-4.28
			c0-1.93,0.72-3.53,2.16-4.8c1.44-1.26,3.27-1.9,5.51-1.9c1.64,0,3.05,0.35,4.25,1.04c1.2,0.69,2.13,1.72,2.8,3.07l-2.68,1.71
			c-0.61-1.05-1.29-1.84-2.05-2.35s-1.61-0.77-2.57-0.77c-1.21,0-2.21,0.37-2.99,1.12c-0.78,0.74-1.16,1.69-1.16,2.85
			c0,0.97,0.3,1.8,0.89,2.51c0.6,0.71,1.52,1.33,2.77,1.88L93.57,363.19z"/>
		<path d="M103.28,378.32v-27.24h3.24v27.24H103.28z"/>
		<path d="M113.1,378.32V350l19.92,21.77v-20.69h3.09v28.3l-19.92-21.52v20.46H113.1z"/>
		<path d="M147.39,378.32v-24.15h-7.7v-3.09h18.64v3.09h-7.67v24.15H147.39z"/>
		<path d="M157.79,368.36h8.69v2.94h-8.69V368.36z"/>
		<path d="M172.39,378.32v-27.24h3.24v24.15h10.29v3.09H172.39z"/>
		<path d="M188.99,351.08h3.27v16.95c0,2.75,0.59,4.78,1.76,6.07c1.17,1.29,3.01,1.93,5.52,1.93c2.5,0,4.34-0.64,5.52-1.93
			s1.76-3.31,1.76-6.07v-16.95h3.29v16.95c0,3.68-0.88,6.44-2.63,8.27c-1.76,1.83-4.4,2.74-7.93,2.74c-3.52,0-6.16-0.91-7.92-2.74
			c-1.75-1.83-2.63-4.59-2.63-8.27V351.08z"/>
		<path d="M216.54,378.32v-27.24h5.23c3.87,0,6.59,0.2,8.18,0.59c1.58,0.39,2.97,1.04,4.16,1.96c1.56,1.2,2.75,2.74,3.55,4.61
			c0.81,1.87,1.21,4.03,1.21,6.47c0,2.43-0.4,4.58-1.2,6.45c-0.8,1.87-1.99,3.4-3.56,4.6c-1.19,0.92-2.55,1.57-4.06,1.96
			c-1.52,0.39-3.89,0.59-7.1,0.59h-1.17H216.54z M219.81,375.27h2.06c3.35,0,5.67-0.15,6.96-0.44c1.29-0.29,2.36-0.79,3.22-1.5
			c1.12-0.93,1.97-2.13,2.55-3.6s0.88-3.15,0.88-5.05c0-1.91-0.29-3.59-0.87-5.03c-0.58-1.44-1.43-2.64-2.56-3.58
			c-0.86-0.72-1.94-1.23-3.26-1.53c-1.32-0.3-3.62-0.46-6.91-0.46h-2.06V375.27z"/>
		<path d="M259.14,364.25h11.24v0.91c0,4.29-1.22,7.68-3.65,10.16s-5.75,3.72-9.95,3.72c-1.28,0-2.5-0.14-3.66-0.41
			c-1.16-0.27-2.23-0.67-3.21-1.19c-2.23-1.23-3.96-2.92-5.17-5.09c-1.21-2.16-1.82-4.62-1.82-7.38c0-2.27,0.36-4.32,1.09-6.15
			c0.73-1.83,1.82-3.44,3.28-4.83c1.23-1.17,2.65-2.05,4.28-2.64c1.62-0.6,3.42-0.89,5.39-0.89c2.62,0,4.89,0.47,6.81,1.42
			c1.92,0.95,3.52,2.38,4.78,4.29l-2.72,2.18c-0.98-1.65-2.2-2.89-3.67-3.71s-3.16-1.24-5.1-1.24c-3.16,0-5.73,1.07-7.7,3.2
			c-1.97,2.13-2.96,4.92-2.96,8.37c0,3.25,1,5.92,3,8c2,2.08,4.55,3.12,7.66,3.12c2.73,0,5-0.83,6.82-2.48
			c1.82-1.66,2.83-3.81,3.02-6.46h-7.78V364.25z"/>
		<path d="M283.79,350l12.39,28.31h-3.52l-3.54-8.35h-10.64l-3.54,8.35h-3.52L283.79,350z M283.79,357.16l-4.33,10.03h8.67
			L283.79,357.16z"/>
		<path d="M298.99,378.32v-27.24h6.4c1.82,0,3.16,0.1,4.01,0.31c0.85,0.21,1.6,0.56,2.24,1.05c0.81,0.63,1.43,1.48,1.88,2.54
			s0.67,2.24,0.67,3.53c0,2.23-0.62,3.93-1.87,5.09c-1.25,1.16-3.07,1.74-5.48,1.74h-0.58l10.4,12.99h-4.11l-9.93-12.99h-0.47v12.99
			H298.99z M302.15,353.82v9.12h2.47c2.53,0,4.22-0.33,5.08-0.98c0.86-0.65,1.28-1.79,1.28-3.41c0-1.75-0.44-2.97-1.32-3.67
			c-0.88-0.7-2.56-1.05-5.04-1.05H302.15z"/>
		<path d="M319.38,378.32v-27.24h5.23c3.87,0,6.59,0.2,8.18,0.59c1.58,0.39,2.97,1.04,4.16,1.96c1.56,1.2,2.75,2.74,3.55,4.61
			c0.81,1.87,1.21,4.03,1.21,6.47c0,2.43-0.4,4.58-1.2,6.45c-0.8,1.87-1.99,3.4-3.56,4.6c-1.19,0.92-2.55,1.57-4.06,1.96
			c-1.52,0.39-3.89,0.59-7.1,0.59h-1.17H319.38z M322.65,375.27h2.06c3.35,0,5.67-0.15,6.96-0.44c1.29-0.29,2.36-0.79,3.22-1.5
			c1.12-0.93,1.97-2.13,2.55-3.6s0.88-3.15,0.88-5.05c0-1.91-0.29-3.59-0.87-5.03c-0.58-1.44-1.43-2.64-2.56-3.58
			c-0.86-0.72-1.94-1.23-3.26-1.53c-1.32-0.3-3.62-0.46-6.91-0.46h-2.06V375.27z"/>
		<path d="M347.04,378.32v-27.24h3.24v27.24H347.04z"/>
		<path d="M366.78,363.19c1.77,0.76,3.11,1.76,4.01,3.01c0.9,1.25,1.35,2.74,1.35,4.45c0,2.51-0.8,4.52-2.39,6.06
			c-1.59,1.53-3.71,2.3-6.33,2.3c-2.15,0-3.94-0.55-5.39-1.65s-2.43-2.66-2.94-4.68l2.94-1.45c0.4,1.65,1.05,2.9,1.96,3.75
			c0.91,0.85,2.06,1.27,3.43,1.27c1.62,0,2.94-0.47,3.94-1.4s1.51-2.15,1.51-3.66c0-1.22-0.35-2.27-1.05-3.17
			c-0.7-0.9-1.76-1.66-3.17-2.28l-3.31-1.41c-1.81-0.76-3.16-1.73-4.05-2.92c-0.89-1.19-1.33-2.62-1.33-4.28
			c0-1.93,0.72-3.53,2.16-4.8c1.44-1.26,3.27-1.9,5.51-1.9c1.64,0,3.05,0.35,4.25,1.04c1.2,0.69,2.13,1.72,2.8,3.07l-2.68,1.71
			c-0.61-1.05-1.29-1.84-2.05-2.35s-1.61-0.77-2.57-0.77c-1.21,0-2.21,0.37-2.99,1.12c-0.78,0.74-1.16,1.69-1.16,2.85
			c0,0.97,0.3,1.8,0.89,2.51c0.59,0.71,1.52,1.33,2.77,1.88L366.78,363.19z"/>
		<path d="M387.69,378.32v-27.24h5.67c2,0,3.47,0.1,4.42,0.31c0.95,0.21,1.76,0.56,2.45,1.05c0.87,0.65,1.54,1.47,2.02,2.48
			s0.72,2.12,0.72,3.32c0,1.44-0.34,2.64-1.03,3.61c-0.69,0.97-1.69,1.64-3,2.03c1.61,0.25,2.89,0.97,3.82,2.17
			c0.94,1.2,1.4,2.71,1.4,4.53c0,1.09-0.2,2.13-0.6,3.13c-0.4,0.99-0.95,1.84-1.66,2.55c-0.77,0.76-1.72,1.29-2.85,1.6
			c-1.13,0.31-3.03,0.46-5.69,0.46H387.69z M390.85,353.89v9.12h2.51c2.31,0,3.93-0.33,4.87-1s1.41-1.8,1.41-3.39
			c0-1.75-0.44-2.97-1.31-3.67c-0.87-0.7-2.53-1.05-4.98-1.05H390.85z M390.85,365.55v9.93h2.51c1.72,0,2.97-0.07,3.73-0.2
			s1.37-0.37,1.83-0.71c0.56-0.4,1-0.95,1.32-1.66c0.32-0.71,0.48-1.49,0.48-2.34c0-0.99-0.19-1.85-0.58-2.59
			c-0.38-0.73-0.94-1.3-1.67-1.71c-0.43-0.26-0.94-0.45-1.51-0.56c-0.57-0.11-1.46-0.17-2.66-0.17h-0.95H390.85z"/>
		<path d="M409.11,378.32v-27.24h6.4c1.82,0,3.16,0.1,4.01,0.31c0.85,0.21,1.6,0.56,2.24,1.05c0.81,0.63,1.43,1.48,1.88,2.54
			s0.67,2.24,0.67,3.53c0,2.23-0.62,3.93-1.87,5.09c-1.25,1.16-3.07,1.74-5.48,1.74h-0.58l10.4,12.99h-4.11l-9.93-12.99h-0.47v12.99
			H409.11z M412.27,353.82v9.12h2.47c2.53,0,4.22-0.33,5.08-0.98c0.86-0.65,1.28-1.79,1.28-3.41c0-1.75-0.44-2.97-1.32-3.67
			c-0.88-0.7-2.56-1.05-5.04-1.05H412.27z"/>
		<path d="M438.11,350l12.39,28.31h-3.52l-3.54-8.35h-10.64l-3.54,8.35h-3.52L438.11,350z M438.11,357.16l-4.33,10.03h8.67
			L438.11,357.16z"/>
		<path d="M463.22,363.19c1.77,0.76,3.11,1.76,4.01,3.01c0.9,1.25,1.35,2.74,1.35,4.45c0,2.51-0.8,4.52-2.39,6.06
			c-1.59,1.53-3.71,2.3-6.33,2.3c-2.15,0-3.94-0.55-5.39-1.65s-2.43-2.66-2.94-4.68l2.94-1.45c0.4,1.65,1.05,2.9,1.96,3.75
			c0.91,0.85,2.06,1.27,3.43,1.27c1.62,0,2.94-0.47,3.94-1.4s1.51-2.15,1.51-3.66c0-1.22-0.35-2.27-1.05-3.17
			c-0.7-0.9-1.76-1.66-3.17-2.28l-3.31-1.41c-1.81-0.76-3.16-1.73-4.05-2.92c-0.89-1.19-1.33-2.62-1.33-4.28
			c0-1.93,0.72-3.53,2.16-4.8c1.44-1.26,3.27-1.9,5.51-1.9c1.64,0,3.05,0.35,4.25,1.04c1.2,0.69,2.13,1.72,2.8,3.07l-2.68,1.71
			c-0.61-1.05-1.29-1.84-2.05-2.35s-1.61-0.77-2.57-0.77c-1.21,0-2.21,0.37-2.99,1.12c-0.78,0.74-1.16,1.69-1.16,2.85
			c0,0.97,0.3,1.8,0.89,2.51c0.59,0.71,1.52,1.33,2.77,1.88L463.22,363.19z"/>
		<path d="M482.81,363.19c1.77,0.76,3.11,1.76,4.01,3.01c0.9,1.25,1.35,2.74,1.35,4.45c0,2.51-0.8,4.52-2.39,6.06
			c-1.59,1.53-3.71,2.3-6.33,2.3c-2.15,0-3.94-0.55-5.39-1.65s-2.43-2.66-2.94-4.68l2.94-1.45c0.4,1.65,1.05,2.9,1.96,3.75
			c0.91,0.85,2.06,1.27,3.43,1.27c1.62,0,2.94-0.47,3.94-1.4s1.51-2.15,1.51-3.66c0-1.22-0.35-2.27-1.05-3.17
			c-0.7-0.9-1.76-1.66-3.17-2.28l-3.31-1.41c-1.81-0.76-3.16-1.73-4.05-2.92c-0.89-1.19-1.33-2.62-1.33-4.28
			c0-1.93,0.72-3.53,2.16-4.8c1.44-1.26,3.27-1.9,5.51-1.9c1.64,0,3.05,0.35,4.25,1.04c1.2,0.69,2.13,1.72,2.8,3.07l-2.68,1.71
			c-0.61-1.05-1.29-1.84-2.05-2.35s-1.61-0.77-2.57-0.77c-1.21,0-2.21,0.37-2.99,1.12c-0.78,0.74-1.16,1.69-1.16,2.85
			c0,0.97,0.3,1.8,0.89,2.51c0.59,0.71,1.52,1.33,2.77,1.88L482.81,363.19z"/>
		<path d="M514.59,357.59c-1.3-1.41-2.69-2.46-4.17-3.13c-1.48-0.68-3.11-1.01-4.89-1.01c-1.44,0-2.84,0.29-4.21,0.88
			s-2.56,1.39-3.56,2.44c-1.04,1.08-1.82,2.29-2.34,3.62c-0.52,1.33-0.78,2.81-0.78,4.42c0,1.26,0.15,2.43,0.46,3.5
			c0.31,1.07,0.77,2.05,1.4,2.94c1.09,1.55,2.43,2.74,4.03,3.58s3.31,1.26,5.16,1.26c1.74,0,3.35-0.36,4.84-1.08
			c1.49-0.72,2.85-1.79,4.07-3.22v4.3c-1.35,0.98-2.81,1.72-4.36,2.22c-1.56,0.5-3.17,0.75-4.83,0.75c-1.44,0-2.84-0.21-4.21-0.64
			s-2.64-1.05-3.83-1.87c-1.98-1.38-3.5-3.07-4.55-5.08c-1.05-2.01-1.57-4.22-1.57-6.62c0-2.1,0.35-4,1.05-5.72
			c0.7-1.72,1.77-3.28,3.21-4.68c1.39-1.34,2.93-2.34,4.61-3c1.69-0.66,3.53-1,5.53-1c1.58,0,3.1,0.24,4.58,0.72
			c1.48,0.48,2.93,1.22,4.37,2.22V357.59z"/>
		<path d="M520.11,378.32v-27.24h3.24v10.47h14.47v-10.47h3.29v27.24h-3.29v-13.67h-14.47v13.67H520.11z"/>
		<path d="M556.24,350l12.39,28.31h-3.52l-3.54-8.35h-10.64l-3.54,8.35h-3.52L556.24,350z M556.24,357.16l-4.33,10.03h8.67
			L556.24,357.16z"/>
		<path d="M580.05,350l12.39,28.31h-3.52l-3.54-8.35h-10.64l-3.54,8.35h-3.52L580.05,350z M580.05,357.16l-4.33,10.03h8.67
			L580.05,357.16z"/>
		<path d="M597.93,378.32v-24.15h-7.7v-3.09h18.64v3.09h-7.67v24.15H597.93z"/>
	</g>
</g>
</svg>
